<?xml version="1.0" standalone="no"?>
<!DOCTYPE svg PUBLIC "-//W3C//DTD SVG 20010904//EN"
 "http://www.w3.org/TR/2001/REC-SVG-20010904/DTD/svg10.dtd">
<svg version="1.0" xmlns="http://www.w3.org/2000/svg"
 width="225.000000pt" height="225.000000pt" viewBox="0 0 225.000000 225.000000"
 preserveAspectRatio="xMidYMid meet">
<metadata>
Created by potrace 1.15, written by Peter Selinger 2001-2017
</metadata>
<g transform="translate(0.000000,225.000000) scale(0.100000,-0.100000)"
fill="#000000" stroke="none">
<path d="M540 1805 c-130 -41 -210 -189 -197 -364 10 -144 64 -238 165 -288
49 -24 69 -28 142 -28 68 0 94 5 132 23 127 63 196 223 168 396 -18 117 -75
202 -164 248 -53 28 -181 34 -246 13z m190 -153 c80 -59 79 -326 -2 -386 -20
-14 -42 -20 -80 -19 -46 1 -56 5 -84 36 -70 76 -72 273 -3 352 17 19 40 36 52
38 37 8 90 -1 117 -21z"/>
<path d="M1362 1728 c-28 -51 -196 -364 -375 -695 l-325 -603 91 0 92 0 370
685 c204 377 372 690 373 695 2 6 -32 10 -86 10 l-90 0 -50 -92z"/>
<path d="M1495 1113 c-28 -10 -65 -28 -82 -41 -109 -78 -153 -293 -93 -454 26
-70 66 -117 131 -153 49 -27 62 -30 149 -30 86 0 100 3 148 29 92 51 145 141
158 268 16 168 -54 317 -175 371 -64 28 -172 33 -236 10z m195 -161 c37 -37
50 -88 50 -192 -1 -142 -42 -205 -135 -205 -96 0 -137 63 -138 210 0 154 40
215 140 215 47 0 59 -4 83 -28z"/>
</g>
</svg>
