<?xml version="1.0" standalone="no"?>
<!DOCTYPE svg PUBLIC "-//W3C//DTD SVG 20010904//EN"
 "http://www.w3.org/TR/2001/REC-SVG-20010904/DTD/svg10.dtd">
<svg version="1.0" xmlns="http://www.w3.org/2000/svg"
 width="225.000000pt" height="225.000000pt" viewBox="0 0 225.000000 225.000000"
 preserveAspectRatio="xMidYMid meet">
<metadata>
Created by potrace 1.15, written by Peter Selinger 2001-2017
</metadata>
<g transform="translate(0.000000,225.000000) scale(0.100000,-0.100000)"
fill="#000000" stroke="none">
<path d="M1594 2240 c-66 -27 -184 -280 -202 -432 -5 -40 -7 -89 -5 -110 l5
-36 -69 25 c-92 34 -240 43 -333 19 -224 -58 -388 -222 -446 -446 -24 -93 -15
-241 19 -333 l25 -69 -36 5 c-59 7 -176 -11 -255 -39 -97 -35 -239 -109 -268
-140 -52 -55 -19 -144 59 -159 85 -16 141 -74 149 -153 9 -96 42 -132 118
-132 80 0 143 -53 169 -143 19 -67 45 -92 96 -92 53 0 79 28 139 144 78 153
119 311 105 400 l-6 39 68 -26 c61 -23 84 -26 194 -27 105 0 135 4 192 23 173
60 320 207 380 380 19 57 23 87 23 192 -1 110 -4 133 -27 194 l-26 68 39 -6
c89 -14 247 27 400 105 116 60 144 86 144 139 0 51 -25 77 -92 96 -90 26 -143
89 -143 169 0 76 -36 109 -132 118 -79 8 -137 64 -153 149 -12 62 -77 101
-131 78z m53 -133 c14 -53 81 -130 136 -158 22 -12 61 -24 86 -28 45 -6 46 -7
52 -52 9 -63 39 -118 91 -165 39 -36 62 -49 122 -68 25 -9 17 -16 -74 -65
-165 -88 -339 -119 -432 -78 -154 69 -194 239 -107 455 32 82 97 202 108 202
4 0 12 -19 18 -43z m-416 -487 c83 -15 186 -71 248 -134 l54 -54 -61 -31
c-111 -56 -201 -76 -347 -76 -146 0 -236 20 -347 76 l-60 30 23 26 c74 81 179
145 269 162 63 12 158 13 221 1z m-385 -343 c231 -73 486 -53 694 53 39 20 39
20 50 1 18 -35 40 -135 40 -186 l0 -51 -67 -43 c-265 -175 -611 -175 -876 0
-65 42 -67 45 -67 85 0 53 15 133 34 179 l15 36 48 -24 c26 -14 85 -36 129
-50z m48 -416 c210 -55 451 -29 646 69 33 17 60 25 60 19 0 -28 -67 -132 -117
-182 -200 -200 -526 -197 -721 7 -52 54 -112 148 -112 175 0 5 37 -8 83 -29
45 -21 118 -48 161 -59z m-257 -113 c91 -43 136 -124 136 -243 -1 -94 -31
-197 -94 -315 -49 -91 -56 -99 -65 -74 -19 60 -32 83 -68 122 -47 52 -102 82
-165 91 -45 6 -46 7 -52 52 -4 25 -16 64 -28 86 -28 55 -105 122 -158 136 -24
6 -43 14 -43 18 0 11 120 76 203 109 133 53 246 59 334 18z"/>
</g>
</svg>
