<?xml version="1.0" standalone="no"?>
<!DOCTYPE svg PUBLIC "-//W3C//DTD SVG 20010904//EN"
 "http://www.w3.org/TR/2001/REC-SVG-20010904/DTD/svg10.dtd">
<svg version="1.0" xmlns="http://www.w3.org/2000/svg"
 width="1300.000000pt" height="1300.000000pt" viewBox="0 0 1300.000000 1300.000000"
 preserveAspectRatio="xMidYMid meet">
<metadata>
Created by potrace 1.15, written by Peter Selinger 2001-2017
</metadata>
<g transform="translate(0.000000,1300.000000) scale(0.100000,-0.100000)"
fill="#000000" stroke="none">
<path d="M7738 10319 c-137 -19 -192 -94 -191 -259 2 -220 156 -587 461 -1098
l85 -143 91 -55 c50 -31 105 -65 121 -75 54 -36 533 -334 567 -354 9 -5 93
-56 185 -112 481 -290 793 -437 1048 -493 81 -18 216 -15 264 7 31 13 162 138
477 453 l434 435 -82 18 c-245 54 -357 95 -623 227 -271 134 -487 260 -1100
645 -851 534 -1276 753 -1541 793 -114 18 -137 19 -196 11z"/>
<path d="M6923 9578 c-307 -308 -436 -445 -449 -473 -20 -49 -23 -174 -5 -260
19 -87 77 -255 128 -369 128 -285 246 -492 681 -1191 140 -225 261 -420 268
-431 33 -55 634 -383 879 -479 325 -128 552 -118 616 28 75 172 -37 542 -309
1022 -127 224 -321 545 -446 740 -85 131 -113 176 -253 405 -433 709 -572
1001 -648 1363 -9 42 -19 77 -23 77 -4 0 -201 -195 -439 -432z"/>
<path d="M5167 7790 c-16 -5 -44 -21 -64 -36 -110 -84 -102 -298 23 -614 57
-144 210 -442 341 -665 l100 -170 249 -157 c688 -433 991 -613 1246 -738 315
-155 450 -199 628 -206 106 -4 131 -2 163 13 23 11 203 184 472 453 l435 434
-123 28 c-388 89 -680 236 -1548 779 -709 443 -919 567 -1173 689 -305 148
-473 201 -630 199 -50 0 -104 -5 -119 -9z"/>
<path d="M4403 7058 c-311 -311 -437 -444 -449 -472 -11 -27 -16 -70 -16 -131
0 -264 199 -696 664 -1440 59 -93 201 -320 223 -355 78 -123 182 -292 196
-317 31 -56 590 -369 844 -472 273 -111 454 -134 582 -74 48 23 88 97 97 180
24 212 -145 626 -492 1203 -94 157 -347 565 -440 710 -69 108 -80 126 -120
192 -249 404 -437 756 -529 990 -24 59 -59 177 -80 262 -21 86 -40 156 -43
156 -3 0 -200 -195 -437 -432z"/>
<path d="M2636 5265 c-31 -11 -138 -112 -478 -452 l-438 -438 97 -22 c441
-101 712 -242 1838 -950 948 -597 1439 -804 1675 -706 37 15 75 51 583 561
l329 329 -87 17 c-388 77 -723 245 -1650 825 -115 72 -232 145 -260 163 -95
60 -120 76 -210 131 -332 203 -694 395 -880 466 -216 83 -417 113 -519 76z"/>
</g>
</svg>
